<svg xmlns="http://www.w3.org/2000/svg" xmlns:xlink="http://www.w3.org/1999/xlink" viewBox="0 0 677.6 553.54">
    <defs>
        <style>.cls-1{fill:url(#Degradado_sin_nombre_148);}.cls-2{fill:url(#Degradado_sin_nombre_148-2);}.cls-3{fill:url(#Degradado_sin_nombre_148-3);}.cls-4{fill:url(#Degradado_sin_nombre_148-4);}.cls-5{fill:url(#Degradado_sin_nombre_148-5);}.cls-6{fill:url(#Degradado_sin_nombre_148-6);}.cls-7{fill:url(#Degradado_sin_nombre_148-7);}.cls-8{fill:url(#Degradado_sin_nombre_148-8);}.cls-9{fill:url(#Degradado_sin_nombre_148-9);}.cls-10{fill:url(#Degradado_sin_nombre_148-10);}.cls-11{fill:url(#Degradado_sin_nombre_148-11);}.cls-12{fill:url(#Degradado_sin_nombre_148-12);}.cls-13{fill:url(#Degradado_sin_nombre_148-13);}.cls-14{fill:url(#Degradado_sin_nombre_148-14);}.cls-15{fill:url(#Degradado_sin_nombre_148-15);}.cls-16{fill:url(#Degradado_sin_nombre_148-16);}.cls-17{fill:url(#Degradado_sin_nombre_148-17);}.cls-18{fill:url(#Degradado_sin_nombre_148-18);}.cls-19{fill:url(#Degradado_sin_nombre_148-19);}.cls-20{fill:url(#Degradado_sin_nombre_148-20);}.cls-21{fill:url(#Degradado_sin_nombre_148-21);}.cls-22{fill:url(#Degradado_sin_nombre_148-22);}.cls-23{fill:url(#Degradado_sin_nombre_148-23);}.cls-24{fill:url(#Degradado_sin_nombre_148-24);}.cls-25{fill:url(#Degradado_sin_nombre_148-25);}.cls-26{fill:url(#Degradado_sin_nombre_148-26);}.cls-27{fill:url(#Degradado_sin_nombre_148-27);}.cls-28{fill:url(#Degradado_sin_nombre_148-28);}.cls-29{fill:url(#Degradado_sin_nombre_148-29);}.cls-30{fill:url(#Degradado_sin_nombre_148-30);}.cls-31{fill:url(#Degradado_sin_nombre_148-31);}.cls-32{fill:url(#Degradado_sin_nombre_148-32);}.cls-33{fill:url(#Degradado_sin_nombre_148-33);}.cls-34{fill:url(#Degradado_sin_nombre_148-34);}.cls-35{fill:url(#Degradado_sin_nombre_148-35);}.cls-36{fill:url(#Degradado_sin_nombre_148-36);}.cls-37{fill:url(#Degradado_sin_nombre_148-37);}.cls-38{fill:url(#Degradado_sin_nombre_148-38);}.cls-39{fill:url(#Degradado_sin_nombre_148-39);}.cls-40{fill:url(#Degradado_sin_nombre_148-40);}.cls-41{fill:url(#Degradado_sin_nombre_148-41);}.cls-42{fill:url(#Degradado_sin_nombre_148-42);}.cls-43{fill:url(#Degradado_sin_nombre_148-43);}.cls-44{fill:url(#Degradado_sin_nombre_148-44);}.cls-45{fill:url(#Degradado_sin_nombre_148-45);}.cls-46{fill:url(#Degradado_sin_nombre_148-46);}.cls-47{fill:url(#Degradado_sin_nombre_148-47);}.cls-48{fill:url(#Degradado_sin_nombre_148-48);}.cls-49{fill:url(#Degradado_sin_nombre_148-49);}.cls-50{fill:url(#Degradado_sin_nombre_148-50);}.cls-51{fill:url(#Degradado_sin_nombre_148-51);}.cls-52{fill:url(#Degradado_sin_nombre_148-52);}.cls-53{fill:url(#Degradado_sin_nombre_148-53);}.cls-54{fill:url(#Degradado_sin_nombre_148-54);}.cls-55{fill:url(#Degradado_sin_nombre_148-55);}.cls-56{fill:url(#Degradado_sin_nombre_148-56);}.cls-57{fill:url(#Degradado_sin_nombre_148-57);}.cls-58{fill:url(#Degradado_sin_nombre_148-58);}.cls-59{fill:url(#Degradado_sin_nombre_148-59);}.cls-60{fill:url(#Degradado_sin_nombre_148-60);}.cls-61{fill:url(#Degradado_sin_nombre_148-61);}.cls-62{fill:url(#Degradado_sin_nombre_148-62);}.cls-63{fill:url(#Degradado_sin_nombre_148-63);}.cls-64{fill:url(#Degradado_sin_nombre_148-64);}.cls-65{fill:url(#Degradado_sin_nombre_148-65);}.cls-66{fill:url(#Degradado_sin_nombre_148-66);}.cls-67{fill:url(#Degradado_sin_nombre_148-67);}.cls-68{fill:url(#Degradado_sin_nombre_148-68);}.cls-69{fill:url(#Degradado_sin_nombre_148-69);}.cls-70{fill:url(#Degradado_sin_nombre_148-70);}.cls-71{fill:#fff;}.cls-72,.cls-73,.cls-74,.cls-75,.cls-76,.cls-77,.cls-78,.cls-79,.cls-80,.cls-81{stroke:#fff;stroke-miterlimit:10;}.cls-72{fill:url(#Degradado_sin_nombre_133);}.cls-73{fill:url(#Degradado_sin_nombre_133-2);}.cls-74{fill:url(#Degradado_sin_nombre_133-3);}.cls-75{fill:url(#Degradado_sin_nombre_133-4);}.cls-76{fill:url(#Degradado_sin_nombre_133-5);}.cls-77{fill:url(#Degradado_sin_nombre_133-6);}.cls-78{fill:url(#Degradado_sin_nombre_133-7);}.cls-79{fill:url(#Degradado_sin_nombre_133-8);}.cls-80{fill:url(#Degradado_sin_nombre_133-9);}.cls-81{fill:url(#Degradado_sin_nombre_133-10);}</style>
        <linearGradient id="Degradado_sin_nombre_148" x1="113.9" y1="393.18" x2="113.9" y2="178.02" gradientUnits="userSpaceOnUse">
            <stop offset="0" stop-color="#bde2f4" />
            <stop offset="0.52" stop-color="#e1f4ff" />
            <stop offset="1" stop-color="#bde2f4" />
        </linearGradient>
        <linearGradient id="Degradado_sin_nombre_148-2" x1="119.92" y1="405.34" x2="119.92" y2="165.85" xlink:href="#Degradado_sin_nombre_148" />
        <linearGradient id="Degradado_sin_nombre_148-3" x1="103.53" y1="366.98" x2="103.53" y2="204.21" xlink:href="#Degradado_sin_nombre_148" />
        <linearGradient id="Degradado_sin_nombre_148-4" x1="108.43" y1="380.44" x2="108.43" y2="190.76" xlink:href="#Degradado_sin_nombre_148" />
        <linearGradient id="Degradado_sin_nombre_148-5" x1="125.94" y1="416.11" x2="125.94" y2="155.09" xlink:href="#Degradado_sin_nombre_148" />
        <linearGradient id="Degradado_sin_nombre_148-6" x1="131.93" y1="425.47" x2="131.93" y2="145.73" xlink:href="#Degradado_sin_nombre_148" />
        <linearGradient id="Degradado_sin_nombre_148-7" x1="151.15" y1="451.01" x2="151.15" y2="120.18" xlink:href="#Degradado_sin_nombre_148" />
        <linearGradient id="Degradado_sin_nombre_148-8" x1="144.29" y1="442.74" x2="144.29" y2="128.45" xlink:href="#Degradado_sin_nombre_148" />
        <linearGradient id="Degradado_sin_nombre_148-9" x1="137.71" y1="433.93" x2="137.71" y2="137.26" xlink:href="#Degradado_sin_nombre_148" />
        <linearGradient id="Degradado_sin_nombre_148-10" x1="157.73" y1="458.25" x2="157.73" y2="112.94" xlink:href="#Degradado_sin_nombre_148" />
        <linearGradient id="Degradado_sin_nombre_148-11" x1="180.07" y1="479.21" x2="180.07" y2="91.98" xlink:href="#Degradado_sin_nombre_148" />
        <linearGradient id="Degradado_sin_nombre_148-12" x1="187.66" y1="485.25" x2="187.66" y2="85.94" xlink:href="#Degradado_sin_nombre_148" />
        <linearGradient id="Degradado_sin_nombre_148-13" x1="164.89" y1="465.53" x2="164.89" y2="105.67" xlink:href="#Degradado_sin_nombre_148" />
        <linearGradient id="Degradado_sin_nombre_148-14" x1="172.48" y1="472.64" x2="172.48" y2="98.55" xlink:href="#Degradado_sin_nombre_148" />
        <linearGradient id="Degradado_sin_nombre_148-15" x1="210.23" y1="500.71" x2="210.23" y2="70.48" xlink:href="#Degradado_sin_nombre_148" />
        <linearGradient id="Degradado_sin_nombre_148-16" x1="217.82" y1="505.12" x2="217.82" y2="66.07" xlink:href="#Degradado_sin_nombre_148" />
        <linearGradient id="Degradado_sin_nombre_148-17" x1="195.05" y1="490.73" x2="195.05" y2="80.46" xlink:href="#Degradado_sin_nombre_148" />
        <linearGradient id="Degradado_sin_nombre_148-18" x1="202.64" y1="495.9" x2="202.64" y2="75.29" xlink:href="#Degradado_sin_nombre_148" />
        <linearGradient id="Degradado_sin_nombre_148-19" x1="240.69" y1="516.45" x2="240.69" y2="54.75" xlink:href="#Degradado_sin_nombre_148" />
        <linearGradient id="Degradado_sin_nombre_148-20" x1="225.51" y1="509.27" x2="225.51" y2="61.92" xlink:href="#Degradado_sin_nombre_148" />
        <linearGradient id="Degradado_sin_nombre_148-21" x1="233.1" y1="513.01" x2="233.1" y2="58.18" xlink:href="#Degradado_sin_nombre_148" />
        <linearGradient id="Degradado_sin_nombre_148-22" x1="248" y1="519.49" x2="248" y2="51.7" xlink:href="#Degradado_sin_nombre_148" />
        <linearGradient id="Degradado_sin_nombre_148-23" x1="270.86" y1="527.29" x2="270.86" y2="43.91" xlink:href="#Degradado_sin_nombre_148" />
        <linearGradient id="Degradado_sin_nombre_148-24" x1="255.68" y1="522.38" x2="255.68" y2="48.81" xlink:href="#Degradado_sin_nombre_148" />
        <linearGradient id="Degradado_sin_nombre_148-25" x1="263.27" y1="524.96" x2="263.27" y2="46.23" xlink:href="#Degradado_sin_nombre_148" />
        <linearGradient id="Degradado_sin_nombre_148-26" x1="293.33" y1="532.63" x2="293.33" y2="38.56" xlink:href="#Degradado_sin_nombre_148" />
        <linearGradient id="Degradado_sin_nombre_148-27" x1="278.15" y1="529.27" x2="278.15" y2="41.92" xlink:href="#Degradado_sin_nombre_148" />
        <linearGradient id="Degradado_sin_nombre_148-28" x1="285.74" y1="531.07" x2="285.74" y2="40.12" xlink:href="#Degradado_sin_nombre_148" />
        <linearGradient id="Degradado_sin_nombre_148-29" x1="300.64" y1="533.91" x2="300.64" y2="37.28" xlink:href="#Degradado_sin_nombre_148" />
        <linearGradient id="Degradado_sin_nombre_148-30" x1="323.51" y1="536.49" x2="323.51" y2="34.7" xlink:href="#Degradado_sin_nombre_148" />
        <linearGradient id="Degradado_sin_nombre_148-31" x1="308.33" y1="535.03" x2="308.33" y2="36.16" xlink:href="#Degradado_sin_nombre_148" />
        <linearGradient id="Degradado_sin_nombre_148-32" x1="315.92" y1="535.88" x2="315.92" y2="35.32" xlink:href="#Degradado_sin_nombre_148" />
        <linearGradient id="Degradado_sin_nombre_148-33" x1="338.96" y1="537.06" x2="338.96" y2="34.13" xlink:href="#Degradado_sin_nombre_148" />
        <linearGradient id="Degradado_sin_nombre_148-34" x1="331.37" y1="536.9" x2="331.37" y2="34.3" xlink:href="#Degradado_sin_nombre_148" />
        <linearGradient id="Degradado_sin_nombre_148-35" x1="587.39" y1="348.75" x2="587.39" y2="222.44" xlink:href="#Degradado_sin_nombre_148" />
        <linearGradient id="Degradado_sin_nombre_148-36" x1="572.13" y1="392.22" x2="572.13" y2="178.97" xlink:href="#Degradado_sin_nombre_148" />
        <linearGradient id="Degradado_sin_nombre_148-37" x1="566.11" y1="404.49" x2="566.11" y2="166.7" xlink:href="#Degradado_sin_nombre_148" />
        <linearGradient id="Degradado_sin_nombre_148-38" x1="582.51" y1="365.67" x2="582.51" y2="205.52" xlink:href="#Degradado_sin_nombre_148" />
        <linearGradient id="Degradado_sin_nombre_148-39" x1="577.6" y1="379.35" x2="577.6" y2="191.85" xlink:href="#Degradado_sin_nombre_148" />
        <linearGradient id="Degradado_sin_nombre_148-40" x1="560.09" y1="415.36" x2="560.09" y2="155.84" xlink:href="#Degradado_sin_nombre_148" />
        <linearGradient id="Degradado_sin_nombre_148-41" x1="554.1" y1="424.79" x2="554.1" y2="146.4" xlink:href="#Degradado_sin_nombre_148" />
        <linearGradient id="Degradado_sin_nombre_148-42" x1="534.88" y1="450.51" x2="534.88" y2="120.68" xlink:href="#Degradado_sin_nombre_148" />
        <linearGradient id="Degradado_sin_nombre_148-43" x1="541.74" y1="442.19" x2="541.74" y2="129" xlink:href="#Degradado_sin_nombre_148" />
        <linearGradient id="Degradado_sin_nombre_148-44" x1="548.32" y1="433.32" x2="548.32" y2="137.87" xlink:href="#Degradado_sin_nombre_148" />
        <linearGradient id="Degradado_sin_nombre_148-45" x1="528.3" y1="457.77" x2="528.3" y2="113.42" xlink:href="#Degradado_sin_nombre_148" />
        <linearGradient id="Degradado_sin_nombre_148-46" x1="505.96" y1="478.83" x2="505.96" y2="92.36" xlink:href="#Degradado_sin_nombre_148" />
        <linearGradient id="Degradado_sin_nombre_148-47" x1="498.37" y1="484.91" x2="498.37" y2="86.28" xlink:href="#Degradado_sin_nombre_148" />
        <linearGradient id="Degradado_sin_nombre_148-48" x1="521.14" y1="465.09" x2="521.14" y2="106.1" xlink:href="#Degradado_sin_nombre_148" />
        <linearGradient id="Degradado_sin_nombre_148-49" x1="513.55" y1="472.25" x2="513.55" y2="98.94" xlink:href="#Degradado_sin_nombre_148" />
        <linearGradient id="Degradado_sin_nombre_148-50" x1="475.8" y1="500.44" x2="475.8" y2="70.76" xlink:href="#Degradado_sin_nombre_148" />
        <linearGradient id="Degradado_sin_nombre_148-51" x1="468.21" y1="504.87" x2="468.21" y2="66.32" xlink:href="#Degradado_sin_nombre_148" />
        <linearGradient id="Degradado_sin_nombre_148-52" x1="490.98" y1="490.41" x2="490.98" y2="80.78" xlink:href="#Degradado_sin_nombre_148" />
        <linearGradient id="Degradado_sin_nombre_148-53" x1="483.39" y1="495.6" x2="483.39" y2="75.59" xlink:href="#Degradado_sin_nombre_148" />
        <linearGradient id="Degradado_sin_nombre_148-54" x1="445.34" y1="516.25" x2="445.34" y2="54.94" xlink:href="#Degradado_sin_nombre_148" />
        <linearGradient id="Degradado_sin_nombre_148-55" x1="460.52" y1="509.03" x2="460.52" y2="62.16" xlink:href="#Degradado_sin_nombre_148" />
        <linearGradient id="Degradado_sin_nombre_148-56" x1="452.93" y1="512.8" x2="452.93" y2="58.39" xlink:href="#Degradado_sin_nombre_148" />
        <linearGradient id="Degradado_sin_nombre_148-57" x1="438.04" y1="519.31" x2="438.04" y2="51.88" xlink:href="#Degradado_sin_nombre_148" />
        <linearGradient id="Degradado_sin_nombre_148-58" x1="415.17" y1="527.15" x2="415.17" y2="44.04" xlink:href="#Degradado_sin_nombre_148" />
        <linearGradient id="Degradado_sin_nombre_148-59" x1="430.35" y1="522.22" x2="430.35" y2="48.97" xlink:href="#Degradado_sin_nombre_148" />
        <linearGradient id="Degradado_sin_nombre_148-60" x1="422.76" y1="524.82" x2="422.76" y2="46.38" xlink:href="#Degradado_sin_nombre_148" />
        <linearGradient id="Degradado_sin_nombre_148-61" x1="392.7" y1="532.55" x2="392.7" y2="38.65" xlink:href="#Degradado_sin_nombre_148" />
        <linearGradient id="Degradado_sin_nombre_148-62" x1="407.88" y1="529.16" x2="407.88" y2="42.03" xlink:href="#Degradado_sin_nombre_148" />
        <linearGradient id="Degradado_sin_nombre_148-63" x1="400.29" y1="530.97" x2="400.29" y2="40.22" xlink:href="#Degradado_sin_nombre_148" />
        <linearGradient id="Degradado_sin_nombre_148-64" x1="385.39" y1="533.84" x2="385.39" y2="37.35" xlink:href="#Degradado_sin_nombre_148" />
        <linearGradient id="Degradado_sin_nombre_148-65" x1="362.52" y1="536.46" x2="362.52" y2="34.73" xlink:href="#Degradado_sin_nombre_148" />
        <linearGradient id="Degradado_sin_nombre_148-66" x1="377.7" y1="534.97" x2="377.7" y2="36.22" xlink:href="#Degradado_sin_nombre_148" />
        <linearGradient id="Degradado_sin_nombre_148-67" x1="370.11" y1="535.84" x2="370.11" y2="35.36" xlink:href="#Degradado_sin_nombre_148" />
        <linearGradient id="Degradado_sin_nombre_148-68" x1="347.07" y1="537.05" x2="347.07" y2="34.14" xlink:href="#Degradado_sin_nombre_148" />
        <linearGradient id="Degradado_sin_nombre_148-69" x1="354.66" y1="536.88" x2="354.66" y2="34.31" xlink:href="#Degradado_sin_nombre_148" />
        <linearGradient id="Degradado_sin_nombre_148-70" x1="98.64" y1="350.4" x2="98.64" y2="220.79" xlink:href="#Degradado_sin_nombre_148" />
        <radialGradient id="Degradado_sin_nombre_133" cx="37.66" cy="281.43" r="95.8" gradientUnits="userSpaceOnUse">
            <stop offset="0.03" stop-color="#12486a" />
            <stop offset="0.48" stop-color="#2467a4" />
            <stop offset="0.95" stop-color="#154466" />
        </radialGradient>
        <radialGradient id="Degradado_sin_nombre_133-2" cx="50.15" cy="301.96" r="12.82" xlink:href="#Degradado_sin_nombre_133" />
        <radialGradient id="Degradado_sin_nombre_133-3" cx="83.6" cy="139.21" r="10.38" xlink:href="#Degradado_sin_nombre_133" />
        <radialGradient id="Degradado_sin_nombre_133-4" cx="102.56" cy="343.96" r="69.77" xlink:href="#Degradado_sin_nombre_133" />
        <radialGradient id="Degradado_sin_nombre_133-5" cx="341.58" cy="63.78" r="183.46" xlink:href="#Degradado_sin_nombre_133" />
        <radialGradient id="Degradado_sin_nombre_133-6" cx="577.96" cy="340.56" r="69.77" xlink:href="#Degradado_sin_nombre_133" />
        <radialGradient id="Degradado_sin_nombre_133-7" cx="632.46" cy="268.19" r="104.76" xlink:href="#Degradado_sin_nombre_133" />
        <radialGradient id="Degradado_sin_nombre_133-8" cx="482.52" cy="519.13" r="73.96" xlink:href="#Degradado_sin_nombre_133" />
        <radialGradient id="Degradado_sin_nombre_133-9" cx="596.2" cy="470.03" r="15.57" xlink:href="#Degradado_sin_nombre_133" />
        <radialGradient id="Degradado_sin_nombre_133-10" cx="628.41" cy="410.61" r="33.91" xlink:href="#Degradado_sin_nombre_133" />
    </defs>
    <g id="Capa_2" data-name="Capa 2">
        <g id="Variantes">
            <g id="logo_claro" data-name="logo claro">
                <g id="world_copia_3" data-name="world copia 3">
                    <g id="circle">
                        <path class="cls-1" d="M112.37,184.74V386.45q1.48,3.39,3.06,6.73V178Q113.85,181.35,112.37,184.74Z" />
                        <path class="cls-2" d="M118.25,172.25V398.94c1.09,2.15,2.2,4.29,3.34,6.4V165.85Q119.88,169,118.25,172.25Z" />
                        <path class="cls-3" d="M102.27,212V359.23c.8,2.6,1.63,5.19,2.51,7.75V204.21C103.9,206.78,103.07,209.36,102.27,212Z" />
                        <path class="cls-4" d="M107,197.88V373.31q1.33,3.58,2.79,7.13V190.76C108.86,193.11,107.93,195.49,107,197.88Z" />
                        <path class="cls-5" d="M124.11,161.35V409.84q1.8,3.17,3.67,6.27v-261Q125.91,158.18,124.11,161.35Z" />
                        <path class="cls-6" d="M130.1,151.38V419.81q1.8,2.85,3.67,5.66V145.73C132.52,147.59,131.3,149.48,130.1,151.38Z" />
                        <path class="cls-7" d="M148.92,125.41V445.78q2.19,2.66,4.46,5.23V120.18Q151.12,122.76,148.92,125.41Z" />
                        <path class="cls-8" d="M142.12,134V437.17q2.13,2.82,4.34,5.57V128.45C145,130.29,143.54,132.14,142.12,134Z" />
                        <path class="cls-9" d="M135.71,142.9V428.29c1.31,1.9,2.64,3.78,4,5.64V137.26C138.35,139.12,137,141,135.71,142.9Z" />
                        <path class="cls-10" d="M155.5,117.79V453.41c1.47,1.63,2.95,3.25,4.46,4.84V112.94C158.45,114.54,157,116.15,155.5,117.79Z" />
                        <path class="cls-11" d="M177.84,95.77V475.43q2.21,1.9,4.46,3.78V92Q180.05,93.86,177.84,95.77Z" />
                        <path class="cls-12" d="M185.43,89.44V481.75c1.47,1.19,3,2.35,4.46,3.5V85.94Q187.64,87.67,185.43,89.44Z" />
                        <path class="cls-13" d="M162.66,110.13V461.06q2.21,2.26,4.46,4.47V105.67C165.62,107.14,164.13,108.62,162.66,110.13Z" />
                        <path class="cls-14" d="M170.25,102.65V468.54c1.47,1.39,3,2.75,4.46,4.1V98.55Q172.46,100.58,170.25,102.65Z" />
                        <path class="cls-15" d="M208,73.26V497.94c1.48.93,3,1.87,4.46,2.77V70.48C211,71.39,209.48,72.32,208,73.26Z" />
                        <path class="cls-16" d="M215.59,68.63V502.57c1.48.86,3,1.72,4.46,2.55v-439C218.55,66.91,217.07,67.76,215.59,68.63Z" />
                        <path class="cls-17" d="M192.83,83.71V487.48c1.47,1.1,2.95,2.19,4.45,3.25V80.46Q195,82.07,192.83,83.71Z" />
                        <path class="cls-18" d="M200.41,78.29V492.9c1.48,1,3,2,4.46,3V75.29C203.37,76.28,201.89,77.28,200.41,78.29Z" />
                        <path class="cls-19" d="M238.46,56.72V514.47c1.48.68,3,1.33,4.46,2V54.75C241.42,55.39,239.94,56,238.46,56.72Z" />
                        <path class="cls-20" d="M223.28,64.27V506.92c1.48.8,3,1.58,4.46,2.35V61.92C226.24,62.69,224.76,63.48,223.28,64.27Z" />
                        <path class="cls-21" d="M230.87,60.35V510.84c1.48.74,3,1.46,4.46,2.17V58.18C233.83,58.89,232.35,59.61,230.87,60.35Z" />
                        <path class="cls-22" d="M245.77,53.52V517.67q2.22.93,4.45,1.82V51.7Q248,52.58,245.77,53.52Z" />
                        <path class="cls-23" d="M268.63,45.23V526c1.48.46,3,.9,4.46,1.33V43.91C271.6,44.34,270.11,44.78,268.63,45.23Z" />
                        <path class="cls-24" d="M253.46,50.46V520.73c1.47.56,3,1.11,4.45,1.65V48.81C256.42,49.35,254.93,49.9,253.46,50.46Z" />
                        <path class="cls-25" d="M261,47.71V523.48c1.48.51,3,1,4.46,1.48V46.23C264,46.71,262.52,47.2,261,47.71Z" />
                        <path class="cls-26" d="M291.1,39.44V531.75c1.48.31,3,.6,4.46.88V38.56C294.07,38.84,292.58,39.13,291.1,39.44Z" />
                        <path class="cls-27" d="M275.93,43.12v485c1.48.4,3,.81,4.45,1.19V41.92C278.89,42.3,277.41,42.71,275.93,43.12Z" />
                        <path class="cls-28" d="M283.52,41.16V530c1.48.36,3,.71,4.45,1V40.12C286.48,40.45,285,40.8,283.52,41.16Z" />
                        <path class="cls-29" d="M298.41,38V533.18c1.48.26,3,.5,4.46.73V37.28C301.38,37.52,299.89,37.75,298.41,38Z" />
                        <path class="cls-30" d="M321.28,35V536.15c1.48.13,3,.24,4.45.34V34.7C324.25,34.8,322.76,34.91,321.28,35Z" />
                        <path class="cls-31" d="M306.1,36.79V534.41c1.48.21,3,.43,4.46.62V36.16C309.07,36.35,307.58,36.57,306.1,36.79Z" />
                        <path class="cls-32" d="M313.69,35.8V535.39c1.48.18,3,.34,4.46.49V35.32C316.66,35.46,315.17,35.63,313.69,35.8Z" />
                        <path class="cls-33" d="M336.73,34.19V537c1.48,0,3,0,4.46.06V34.13C339.7,34.14,338.21,34.15,336.73,34.19Z" />
                        <path class="cls-34" d="M329.14,34.48V536.71c1.48.08,3,.13,4.46.19V34.3C332.11,34.35,330.62,34.41,329.14,34.48Z" />
                        <path class="cls-35" d="M588.5,339.32V231.87c-.68-3.16-1.42-6.31-2.22-9.43V348.75C587.08,345.63,587.82,342.48,588.5,339.32Z" />
                        <path class="cls-36" d="M573.66,385.43V185.76c-1-2.28-2-4.54-3.06-6.79V392.22C571.65,390,572.68,387.71,573.66,385.43Z" />
                        <path class="cls-37" d="M567.78,398V173.15q-1.63-3.26-3.34-6.45V404.49Q566.15,401.3,567.78,398Z" />
                        <path class="cls-38" d="M583.76,357.73V213.47c-.8-2.67-1.63-5.32-2.51-7.95V365.67C582.13,363,583,360.39,583.76,357.73Z" />
                        <path class="cls-39" d="M579,372.14V199.06c-.89-2.43-1.83-4.82-2.79-7.21v187.5C577.16,377,578.1,374.56,579,372.14Z" />
                        <path class="cls-40" d="M561.92,409V162.15c-1.19-2.12-2.41-4.23-3.67-6.31V415.36C559.51,413.27,560.73,411.17,561.92,409Z" />
                        <path class="cls-41" d="M555.93,419.1v-267q-1.8-2.88-3.67-5.7V424.79Q554.14,422,555.93,419.1Z" />
                        <path class="cls-42" d="M537.11,445.24V126q-2.19-2.65-4.46-5.27V450.51C534.16,448.77,535.65,447,537.11,445.24Z" />
                        <path class="cls-43" d="M543.91,436.59v-302c-1.42-1.89-2.87-3.75-4.34-5.6V442.19C541,440.34,542.49,438.48,543.91,436.59Z" />
                        <path class="cls-44" d="M550.32,427.65V143.54c-1.31-1.91-2.64-3.8-4-5.67V433.32C547.68,431.45,549,429.56,550.32,427.65Z" />
                        <path class="cls-45" d="M530.53,452.9V118.29c-1.46-1.64-2.95-3.27-4.46-4.87V457.77C527.58,456.17,529.07,454.54,530.53,452.9Z" />
                        <path class="cls-46" d="M508.19,475V96.16q-2.2-1.92-4.46-3.8V478.83Q506,477,508.19,475Z" />
                        <path class="cls-47" d="M500.6,481.39V89.8q-2.21-1.78-4.46-3.52V484.91Q498.39,483.17,500.6,481.39Z" />
                        <path class="cls-48" d="M523.37,460.61v-350c-1.47-1.52-3-3-4.46-4.49v359Q521.16,462.87,523.37,460.61Z" />
                        <path class="cls-49" d="M515.78,468.13V103.07q-2.21-2.08-4.46-4.13V472.25Q513.57,470.21,515.78,468.13Z" />
                        <path class="cls-50" d="M478,497.66V73.54c-1.48-1-3-1.87-4.46-2.78V500.44C475.07,499.53,476.55,498.6,478,497.66Z" />
                        <path class="cls-51" d="M470.44,502.3V68.89c-1.48-.87-3-1.73-4.46-2.57V504.87C467.48,504,469,503.17,470.44,502.3Z" />
                        <path class="cls-52" d="M493.21,487.16V84c-1.48-1.1-3-2.18-4.46-3.25V490.41C490.25,489.34,491.73,488.26,493.21,487.16Z" />
                        <path class="cls-53" d="M485.62,492.59V78.6c-1.48-1-3-2-4.46-3v420C482.66,494.62,484.14,493.61,485.62,492.59Z" />
                        <path class="cls-54" d="M447.57,514.27V56.93q-2.22-1-4.45-2V516.25Q445.36,515.28,447.57,514.27Z" />
                        <path class="cls-55" d="M462.75,506.68V64.51q-2.21-1.2-4.46-2.35V509Q460.54,507.88,462.75,506.68Z" />
                        <path class="cls-56" d="M455.16,510.62v-450c-1.48-.74-3-1.47-4.46-2.18V512.8C452.2,512.09,453.68,511.36,455.16,510.62Z" />
                        <path class="cls-57" d="M440.26,517.49V53.7c-1.47-.62-3-1.22-4.45-1.82V519.31C437.3,518.71,438.79,518.11,440.26,517.49Z" />
                        <path class="cls-58" d="M417.4,525.83V45.37c-1.48-.46-3-.9-4.46-1.33V527.15C414.43,526.72,415.92,526.29,417.4,525.83Z" />
                        <path class="cls-59" d="M432.58,520.56V50.63c-1.48-.56-3-1.12-4.46-1.66V522.22Q430.36,521.41,432.58,520.56Z" />
                        <path class="cls-60" d="M425,523.33V47.87c-1.48-.51-3-1-4.46-1.49V524.82C422,524.33,423.51,523.84,425,523.33Z" />
                        <path class="cls-61" d="M394.93,531.66V39.54c-1.48-.31-3-.61-4.46-.89v493.9C392,532.26,393.45,532,394.93,531.66Z" />
                        <path class="cls-62" d="M410.11,528V43.24c-1.49-.41-3-.82-4.46-1.21V529.16C407.14,528.78,408.62,528.37,410.11,528Z" />
                        <path class="cls-63" d="M402.52,529.93V41.27c-1.49-.36-3-.72-4.46-1.05V531C399.55,530.64,401,530.29,402.52,529.93Z" />
                        <path class="cls-64" d="M387.62,533.09V38.1c-1.48-.27-3-.51-4.46-.75V533.84C384.65,533.6,386.14,533.36,387.62,533.09Z" />
                        <path class="cls-65" d="M364.75,536.12v-501c-1.48-.13-3-.25-4.45-.35V536.46C361.79,536.36,363.27,536.24,364.75,536.12Z" />
                        <path class="cls-66" d="M379.93,534.35V36.85c-1.48-.22-3-.43-4.46-.63V535C377,534.78,378.45,534.56,379.93,534.35Z" />
                        <path class="cls-67" d="M372.34,535.34V35.85c-1.48-.17-3-.35-4.45-.49V535.84C369.38,535.69,370.86,535.52,372.34,535.34Z" />
                        <path class="cls-68" d="M349.3,537V34.2c-1.48,0-3-.05-4.46-.06V537.05C346.33,537,347.82,537,349.3,537Z" />
                        <path class="cls-69" d="M356.89,536.68V34.51c-1.48-.08-3-.14-4.46-.2V536.88C353.92,536.82,355.41,536.76,356.89,536.68Z" />
                        <path class="cls-70" d="M97.53,229.82V341.37c.68,3,1.43,6,2.22,9V220.79C99,223.78,98.21,226.79,97.53,229.82Z" />
                    </g>
                    <g id="continents_copia_3" data-name="continents copia 3">
                        <path class="cls-71" d="M401.43,342.38c-2-.19-3.36.14-4,1s-.25,2.06-1,3-2,1.19-4,1v21.12a4.61,4.61,0,0,0,3-1c1.32-1.16,1-2.66,2-4,.68-.91,2-1.86,5-2Q401.94,351.94,401.43,342.38Z" />
                        <path class="cls-71" d="M474.91,388.12q.49,15.9,1,31.8H486c.34-2,.67-4.08,1-6.12l13.07-1.22c3-.5,4.37.36,5,1.22,1.11,1.46.67,3.42,2,4.9a4,4,0,0,0,3,1.22q.51,9.16,1,18.34l4-1.22c-.1-.33-1.66-5.52,1-9.78a8,8,0,0,1,5-3.67,5.89,5.89,0,0,1,0-3.67c1.06-2.81,5.16-4.18,10.06-2.45v-9.78l5-2.45q.5-11.61,1-23.23h-6c1.65-5.67,1.13-10.61-1-12.23-1.1-.84-3-1.09-4,0s-.18,3.07-1,4.89c-1.58,3.51-8.54,4.37-10.06,1.22-.91-1.89.35-4.8,1-6.11a152,152,0,0,1-16.1,0c-.83-.07-2.81-.28-4,1.22a6,6,0,0,0-1,3.67c-2.35-.24-3.45.52-4,1.22-1.23,1.52-.6,3.49-2,4.9-1,1-1.66.31-3,1.22-1.86,1.25-1.84,3.37-3,4.89C481.94,388.21,479.84,389.36,474.91,388.12Z" />
                        <path class="cls-71" d="M549.51,327.66a4.65,4.65,0,0,0-2.65.5c-3.12,1.57-4.32,6.12-4.44,6.6a4.74,4.74,0,0,1-4.45-.28,7.06,7.06,0,0,1-2.68-4.25q-8.49.87-17.08,1.49c-.3-1.63-.61-3.26-.91-4.9q-8.59.49-17.28.78V310.5c1.81-1.68,3-2.19,3.65-1.56,1.13,1.13-.22,5.33.92,6.45q.95.93,3.64-1.61V302.19a3.81,3.81,0,0,1-3.64-1.11c-2.16-2.36-2.49-8.49,0-14.31-2.71-.49-3.95.51-4.57,1.38-2.61,3.66.85,11.3-1.83,18.51a14.08,14.08,0,0,1-3.66,5.54,13,13,0,0,1,0,10.65c-1.93,3.9-6.07,5.26-9.17,2.15,1.82,4.45,1.54,9,0,10.86a2.42,2.42,0,0,1-3.68.38c-1-1.08-1.41-3.26-.92-5.38-2.16,1.32-3.35.58-3.69.33-2.2-1.62-3-8-.92-15.1-1.66,2-3.54,2.72-4.62,1.66-.93-.92-.92-2.92-.92-6.91,0-3.82,0-5.73.92-7,1.07-1.46,3.26-2.17,4.62-.17a7,7,0,0,1,0,6.9l10.13-1.9q.45-6.8.92-13.57c-2.48,2.74-5.35,2.35-6.44.18a6.86,6.86,0,0,1,0-5.48,3.08,3.08,0,0,1,4.6-1.43c-.18-3.17.39-4.66.92-5.43,1.14-1.67,2.64-.82,3.67-2.7.84-1.53.13-2.63.92-4,1.27-2.26,3.85-.68,4.58-2.6.5-1.33-.5-2.69,0-4s2.29-1.41,3.66-1.22c2.12-4.42,1.84-9.48,0-11.86a4,4,0,0,0-3.66-1.54V241.72c1.83-.09,3.05.46,3.66,1.64.91,1.74-.05,3.81.91,5.34s2.32.34,3.65,1.58c.84.78,1.7,2.5,1.83,6.63,2.43-.28,4.85-.56,7.27-.82.58-2.28.58-4,0-5.09-1.62-3.14-7-.35-8.18-3.25-.67-1.66.73-3.46,0-5.2s-2.85-1.88-4.57-1.74c-1.43-6.6-.95-9.38,0-10.52,1.31-1.57,3.54-.15,4.57-2,.71-1.31.42-3.43,0-5.2a4,4,0,0,1,3.64,1.82c1.19,1.88.64,4.36,1.82,5.39,1,.89,2-.44,2.72.37.92,1,.28,4.07,0,6.37a36.79,36.79,0,0,0,.91,12.81c1,.61,2.57,1.26,3.62.32,1.39-1.24,1.16-4.55.91-8.7-.22-3.57-.55-9.11-.91-16.45-2.12.68-3.11.08-3.62-.57-1.3-1.68-.31-4.73-1.82-6.67-1-1.25-1.69-.4-2.72-1.74-1.36-1.76-.57-3.83-1.82-5.47s-2.52-.46-3.65-2c-.65-.86-1.1-2.44-.91-5.39-4,1.07-7.25-.15-8.23-2.81a6.34,6.34,0,0,1,0-4c1.3-3.64,6.83-3.32,13.7.14-.82-2.09-.77-4.22,0-5.16,1-1.18,2.77,0,3.63.85,2.11,2.22,2.8,7.41,1.82,13.14a4.57,4.57,0,0,1,3.62,2,9.52,9.52,0,0,1,1.81,5.38q3.17,0,6.32.07c2.34-1.5,2.83-2.43,2.69-3.07-.32-1.47-4-.92-5.4-3.69-.88-1.73-.56-4.13,0-6.19,2.21,1.56,3.16,1.38,3.61.9.89-.94-.08-3.18.89-4.65s2.17,0,3.6-1.42c1.2-1.16.68-2.47,1.79-3.08,1.29-.7,2.45.82,3.58-.08a2.53,2.53,0,0,0,.89-2.08c-.15-1.3-1.93-3.46-9.86-6.76q-.44-2.58-.89-5.18c-3.49.09-39.05-13.88-39.13-13.55a47.89,47.89,0,0,1-1.84-4.49q-8.75-2.74-17.52-5.14c.12-2.41-.61-4.77-1.85-6-.15-.14-1.58-1.48-2.78-.53-1,.83-1.49,3.11-.92,5.46q-9.26-1.63-18.55-2.84c.2-3.36-.39-5-.92-5.89-1.49-2.44-4.06-1.39-12.08-1.4-2.69,0-4.45,0-5.57-2-1-1.76-1-4.28-.93-5.93-3.16-3.67-6.76-3.49-8.36-.61a11.47,11.47,0,0,0-.93,5.82,4.35,4.35,0,0,0,1.86,1.58c1.4.54,2.22-.47,2.79.18.43.5.68,1.93,0,5.87-5.05-1.59-8.73-.33-9.29,2.45-.11.57-.25,2,.93,4.45-2.95,1.38-4.12.75-4.64-.16-.91-1.6.11-4.23-.92-5.92a2.16,2.16,0,0,0-3.71-.09c-1.22,1.63-1.37,5.06,0,7.38-1.85,0-3.7-.05-5.56-.06l-3.7-2.95c-1.31-3.79-1.28-5.28-.92-5.89.82-1.42,3.47,1.53,4.62,0,.46-.6.74-2.08,0-5.9-2.77-.5-5.55-1-8.32-1.41a8,8,0,0,0,0-4.42c-.84-2-2.88-1.12-7.38-1.24-4.88-.12-6.57-1.31-7.36.41-.27.58-.83,2.38.92,7.29,4.6-3.74,9.41-3.27,12,1a14.63,14.63,0,0,1,1.84,5.86c-2.11-1.91-4.55-.89-5.53,1.62a10,10,0,0,0,0,5.89c4.36-3,8-2.94,9.23-.19a8.35,8.35,0,0,1,0,5.91c-1.27,3-4.07,1.46-11.08,1.71s-9.43,1.94-11-.93c-1.12-2-1.12-5-.92-7.27q-11.46.79-22.81,2.31c.37,4.44-.21,6.39-.91,7.3-1.15,1.51-2.65.24-3.62,1.92s-.05,3.9-.9,5.84c-.52,1.17-1.7,2.23-4.52,2v12.79c1.81.73,3.61,1.47,5.42,2.22.33,1.46.55,3.21,0,4.3-1,1.89-3.37.08-4.52,1.91-.58.92-.89,2.84,0,7.11q-4.5-.24-9-.41-.45-6.27-.89-12.52-3.58.51-7.15,1.08a12.67,12.67,0,0,1-2.67,6,5.27,5.27,0,0,1-3.55,1.94v13.7c2.83,2,3.94,1.53,4.44.81,1.23-1.76-.45-6.34.89-8.42.85-1.31,2.45-.93,3.57-.47q.43,6.9.89,13.84a2.51,2.51,0,0,1,2.68,1.12,7.51,7.51,0,0,1,.9,5.53q-6.27.54-12.48,1.2-.45,7.6-.89,15.17c.85-1,2.3-2.28,3.55-1.65,2.82,1.42,2.91,11.91.89,13.75-1.11,1-2.42-1-3.55.19s-1.1,4.27-.89,6.89a3.24,3.24,0,0,0-3.54,1.51c-.86,1.68-.08,3.79-.88,5.47-.51,1.06-1.66,1.95-4.4,1.47v40.35a4.25,4.25,0,0,1,4.4,1.64c2,2.57,2.57,7.87.88,12.3q6.63.59,13.33,1.07c-.07-.41-.65-4.27.89-6.92,1.77-3,5.39-2.86,7.17.41,1.56,2.86,1,6.72.9,7.12,2.19-1,3.15-.51,3.6.22.88,1.42,0,3.89.9,5.75.75,1.56,2.31,1.77,3.62,1.66q.45,25,.9,50.14c.61-.3,2.47-1.11,3.62.43,1,1.36.95,3.86.91,5.85-.08,3.64-.12,8.8,0,15.83,1.73-.57,3.86-1,4.54.58a5.17,5.17,0,0,1,0,2.89c-.59,2.72-.93,7.91,0,18.78q6.36.92,12.77,1.55c-.39-4.78.28-6.5.92-7.22,1.43-1.61,3.83.63,4.58-1.07.54-1.24-.48-3,0-4.4s2-1.72,4.59-1.15c-1.66-5.29-1.1-10.78.92-13.18a3.71,3.71,0,0,1,3.68-1.29q.45-7.33.92-14.68c1.53-.44,3.07-.88,4.61-1.34l-.92-17.7c-.52-9.78-.75-13.89.92-16.2a4.11,4.11,0,0,1,4.61-1.41,8.85,8.85,0,0,1,0-7.38c1.1-2.17,3.06-2.79,4.62-1.45-.14-.69-1.35-6.69.93-11.8a9.27,9.27,0,0,1,3.7-4.43,6.77,6.77,0,0,1,0-2.95,3.73,3.73,0,0,1,4.63-3V306.7c-.47-.29-4.81-3.14-4.63-5.89.15-2.31,3.48-4.25,8.34-4.44a11,11,0,0,1,.92-5.9c1.27-2.32,3.56-3,5.57-1.49v-10.3a10,10,0,0,0-1.86-2.95c-4.17-4.37-9.05,2.12-12.05-1.49-2-2.36-2.64-8.49-.92-11.8a4.19,4.19,0,0,1,6.48-1.47c2.12,1.53,3.55,4.94,3.71,8.86l11.14.05,1.86,5.87a2.43,2.43,0,0,1,2.78,1.48,7,7,0,0,1,0,5.85c3.91-2.11,5.18-.62,5.57,0,.63,1,.59,2.26.93,5.83.31,3.16.68,5.68.93,7.28a3,3,0,0,1,2.79,1.42,8.55,8.55,0,0,1,.93,4.35c.13,6.9,0,14,0,16,3.09.39,6.19.77,9.28,1.13V290.26c.61-.21,1.22-.43,1.85-.68s1.27-.52,1.87-.79a11.56,11.56,0,0,1,1.85-5.75c2-2.7,5.34-2.81,7.42,0,1.94,2.6,1.87,6.49,1.85,7.08l4.63,4.16a12.4,12.4,0,0,1,2.78,4.16c2.11,5,1.07,10.39.92,18.18a99.54,99.54,0,0,0,.93,15.33,2.07,2.07,0,0,1,1.85-.14c2.15,1,3.34,6.42,2.77,13.66,1-1.63,2.68-1.8,3.69-.4a5.4,5.4,0,0,1,0,5.52,12.53,12.53,0,0,0,9.21.2c1.62-.62,4-1.89,4.59-.64.44.9-.41,2.3,0,4a3.65,3.65,0,0,0,1.83,2.4q11-2.43,21.9-5.16a6.76,6.76,0,0,0,0-3.81c-1-2.47-4.32-1.79-11.83-.57-2,.32-5.5.87-10.07,1.5-1.3-3.57-1.22-4.8-.91-5.24.43-.61,1.33.26,2.75-.36a4.75,4.75,0,0,0,1.83-1.57,6.09,6.09,0,0,1,0-4c.81-2,2.81-2.65,3.66-1.78,1.19,1.21-.25,4.89.91,6.46.9,1.21,2.82.43,4.57-.66a6.16,6.16,0,0,1,0-6.5,2.42,2.42,0,0,1,3.64-.5c1.29,1.13,1.75,3.78.91,6.31,5.44-3.06,7.43-2.55,8.16-1.31,1,1.65-.24,4.77.91,6.12,1,1.14,2.94.18,4.51-.86a6.44,6.44,0,0,1,0-6.18,2.43,2.43,0,0,1,3.61-.64c2.16,2.15-1.2,10.08.89,12,1,1,2.83.16,4.49-1-1.14-2.27-.93-4.95,0-6s2.77-.26,3.58.44a6.55,6.55,0,0,1,1.79,4.33c2.68-.63,5.35-1.29,8-2-2-4.7-1.75-9.58,0-11.45.92-1,2.55-1.5,3.54-.75,1.53,1.16.57,4.6,1.77,5.23.61.33,1.83-.12,4.4-3.26Q552.16,331.66,549.51,327.66Zm-169-82.86-1,7.38q-14.73.87-29.28,2-2.5-7.16-5-14.23-7.5-1.11-14.92-2a6.81,6.81,0,0,1,0-4.23,3.28,3.28,0,0,1,4.95-1.76q.51-2.86,1-5.75,7-1.22,14-2.33V231c3-.14,6-.28,9-.39-.35,4.3,1.55,7.25,3,7.18,1.29-.06,2.82-2.49,3-5.93a7.41,7.41,0,0,0,4-3.05c3.17-4.57,2.1-11.38,2-11.8q7.08-.23,14.21-.31a9.94,9.94,0,0,0,1,4.41,4.91,4.91,0,0,0,4.07,2.92,8.7,8.7,0,0,1,0,4.43c-1.51,5-9.27,6.15-19.3,3.23q-.51,5.88-1,11.76Q375.45,244.12,380.53,244.8ZM387.65,292q-3.06-8.11-6.11-16.22V258.05q5.08,13.23,10.18,26.53l2,11.8Z" />
                    </g>
                </g>
                <g id="headset_copia_3" data-name="headset copia 3">
                    <path class="cls-72" d="M74.55,151.13c-12.4,22.81-25.75,45.2-36.74,68.63-4.64,9.91-5.26,21.9-6,33.15-1.07,16,.37,32.3-1.15,48.2-.76,8-5.88,15.33-8.66,23.1-1.72,4.78-4.23,9.92-3.37,14.65.35,1.91,8.78,4.29,13.45,4.43,12.43.39,19.85,7.76,24.33,16.35,8.86,17,8.11,34.37,0,52.09-2-3.07-4.92-6-6-9.23-3.73-11.62-7.17-23.32-10.06-35.08-2-8-6.29-11.6-15.66-9.95C19.43,368.63,27.64,389.2.55,385.82c1.21-11.6,1.83-24.21,3.94-36.51,5.95-34.7,11.4-69.55,19.13-103.83,7.49-33.2,22.76-63.5,42.91-91.36,1.32-1.82,5.43-1.88,8.24-2.76Z" />
                    <path class="cls-73" d="M61.68,290.62c-4.22,8-8,16.24-13,23.86-1.08,1.63-6.58,1-10,1.46,1.41-2.47,2.74-5,4.25-7.4,2.5-4,5.2-7.91,7.68-11.93,1.74-2.82,3.26-5.75,4.87-8.63Z" />
                    <path class="cls-74" d="M75.33,150.9c-3.31-12,7.66-16.11,12.91-23.38L92.47,130q-8.72,10.32-17.41,20.66Z" />
                    <path class="cls-75" d="M134.7,408.54c0-3.56.46-7.18-.08-10.67-4.58-29.21-8.86-58.47-14.23-87.56-3-16.08-7.44-32-12-47.78-2.7-9.38-15-13.68-27.52-11C69,254.07,69.53,260.92,71,269.67c6.29,37.22,11.85,74.53,17.67,111.81,2.19,14.09,4,28.25,6.65,42.27,2.16,11.35,7.68,14.58,20,13.09C129.69,435.1,134.61,428,134.7,408.54Z" />
                    <path class="cls-76" d="M593.19,124.54c-3,.91-6.18,2.77-9,2.49-3.43-.33-7.81-1.82-9.62-3.91-9-10.35-16.31-21.57-25.88-31.55C461.2.34,287.44-16.16,173.33,55.48,144.18,73.77,121,95.54,103.1,121c-2,2.79-7.78,4-11.82,5.89-.26-3.69-2.48-8.21-.51-11C136.11,52.82,206.14,16.1,297.63,3.26,402.72-11.49,530.37,33.94,585.46,114.94c1.49,2.2,2.9,4.43,4.34,6.64Z" />
                    <path class="cls-77" d="M545.81,405.14c0-3.56-.46-7.18.09-10.68,4.58-29.2,8.86-58.46,14.23-87.56,3-16.08,7.44-32,12-47.77,2.7-9.38,15-13.68,27.52-11,11.92,2.55,11.34,9.4,9.86,18.14-6.28,37.22-11.85,74.54-17.66,111.82-2.19,14.09-4,28.24-6.65,42.26-2.16,11.36-7.69,14.58-20,13.1C550.83,431.7,545.91,424.62,545.81,405.14Z" />
                    <path class="cls-78" d="M677.05,384.71c-25.14,2.5-20.52-15.27-23.3-27.38-9.73-2-14.72.78-16.75,9.69-2.44,10.69-6,21.25-9.4,31.78-1.19,3.63-3.52,7-5.4,10.68-2.45-.85-4.24-1-4.42-1.6-5.2-18-5.32-36,5.47-53.52,5.11-8.26,13.41-12.35,24.13-12.74,14.69-.52,18.56-6.4,10-17-11.87-14.59-13.24-31.79-10.71-48.64,7.88-52.52-15.66-93.61-46.26-132.58-3.84-4.91-8.32-9.38-12.51-14l2.61-2.46c2.26,1.61,4.82,3,6.73,4.86a196,196,0,0,1,52.67,92.4c10.8,43.41,16.63,88.14,24.3,132.35C675.8,365.88,676.14,375.5,677.05,384.71Z" />
                    <path class="cls-79" d="M581.29,485.23c-1.25,3.2-1.44,7.43-3.91,9.42a167.46,167.46,0,0,1-61.94,31.45c-33.46,9-68.33,13.54-100.85,25.92-6.69,2.54-17.42-.11-24.73-3.23-3.94-1.69-6.57-9.54-6.26-14.44.58-9.13,9.53-13.26,18.34-14.46,5.48-.75,11.86,1.7,17.39,3.69,6.21,2.23,11.74,7.68,17.87,8.08,41.49,2.68,80.52-5.32,115.83-25,10.38-5.79,19-14,28.43-21.17Z" />
                    <path class="cls-80" d="M581.46,485.45q14.82-15.68,29.62-31.37s-.27-.26-.28-.27c-8,10.79-16,21.63-24.23,32.29-.41.54-3.42-.49-5.25-.83Z" />
                    <path class="cls-81" d="M608.53,454.13c10.44-21.45,21.13-42.81,31.15-64.42,3.3-7.12,4.84-14.88,8.88-22.63-.23,3.69.52,7.69-.84,11-8.64,20.92-17.35,41.84-27,62.41-2.39,5.11-8.24,8.94-12.49,13.38Z" />
                </g>
                <g id="letter_copia_3" data-name="letter copia 3">
                    <path class="cls-71" d="M324,136.61c-26.56-5-54.32-5.11-82.27-.81q-1,2.79-2.05,5.57c0-.09-21.78,9.63-34.8,8.82.22,2.9-.41,4.41-1,5.26-2.19,3-6.37.6-9.19,3.83a10,10,0,0,0-2,5.47,372.93,372.93,0,0,0-49.3,18.35c1,2.63.64,4.21,0,5.18-1.82,2.75-6.61,1.76-8.86,4.95a6.39,6.39,0,0,0-1,4.42q-4.91,2.65-9.75,5.39V217.2q6.8-2.65,13.67-5.11c.33-1.79.66-3.6,1-5.41q6.89-2.6,13.87-5c4.56,8.93,4.57,19.29,0,24.69a12.18,12.18,0,0,1-4,3.1v15.86l5-.88q.51,8,1,16.05a3.45,3.45,0,0,1,3-.33c2.07.94,2.81,5.42,1,10.86,3.1-1.32,4.41-1,5-.34,1.19,1.33-.33,4.16,1,5.54,1.09,1.13,2.72-.12,4,.94,1,.84,1.36,2.73,1,5.65,5-3.39,10.34-3.48,13.15-.31a9,9,0,0,1,2,4.71c5.46-1.15,7.45-.18,8.14,1.14.78,1.49-.06,3.38,1,4.86,1,1.31,2.71,1.4,4.08,1.25l2,6.17,10.22.2a4.74,4.74,0,0,1-1,5,2.92,2.92,0,0,1-4.09-.12v31.12l4.09,2.87v10l10.23,3.6v51.06c3.06-.79,4.46.13,5.12.88,1.8,2,1.19,5.71,1,15.62-.07,3.87,0,7,0,9,2,.16,3.39.83,4.1,2.07,1.18,2.08-.16,4.59,1,6.67.7,1.24,2.07,1.94,4.1,2.05l2,4.27q7.17,1.25,14.32,2.1c1.42-.81,2.09-1.62,2-2.42-.14-1.86-4.22-3.54-12.26-5.56v-31.5c3.41,0,6.81-.12,10.22-.25-1.85-4.84-1.23-9.76,1-11.84a4.64,4.64,0,0,1,4.08-1c.33-1.75.68-3.5,1-5.25,1.7-.34,3.4-.7,5.09-1.06-1.19-7.59-.22-10.63,1-12,.89-1,2.55-1.71,3-3.9a6.59,6.59,0,0,0,0-2.67,4.32,4.32,0,0,0,4.06-1.23c3.65-4.09-.39-15.9,3-18.69,1.1-.9,2-.07,3-1.31,1.51-1.76,1.38-5.26,1-8V329.7L270.27,323l-3.55-3.38c-3.43,2.36-7,1.8-8.65-.78a7.57,7.57,0,0,1-1-4L252,312.05c-.35-1.33-.68-2.66-1-4-1.36-1.35-2.73-2.69-4.09-4l-3.07-4a5,5,0,0,1-7.16-1.37,8.53,8.53,0,0,1-1-5.23c-9.7,2.51-13.19.95-14.34-1.33-.8-1.6-.57-3.84-2-5.11s-3.52-.69-5.12,0c-.33,2.11-.68,4.22-1,6.33a18.07,18.07,0,0,0-7.16,0c-1.53.32-2.84.8-4.09,0a5.89,5.89,0,0,1-2-3.7l-.51-8-3.57-.54-1-10.94c-4-1.9-5.55-1.7-6.11-.9-1,1.36,1.16,4.5,0,6a2.31,2.31,0,0,1-3,.12,4.07,4.07,0,0,1-1-4.72l-4.06.22a3.64,3.64,0,0,1-1-4.64,2.88,2.88,0,0,1,4.06-1.45q1-6,2-12,8.64-.84,17.32-1.54c-.05,1.56-.05,3.21,0,5,.08,2.46.27,4.73.52,6.79a3.5,3.5,0,0,0-4.6,2.11,4.18,4.18,0,0,0,.51,3.05,7.58,7.58,0,0,1,7.66,1.52,11,11,0,0,1,3.07,6.16l15.87-2.33a6.88,6.88,0,0,0-.51-3.2c-1.68-3.82-7.46-4.68-14.34-2.06-4-9.61-3.94-19.08,0-23.92a9.35,9.35,0,0,1,4.1-2.87,6.24,6.24,0,0,1,1-3.89c1.37-1.81,3.51-1.26,4.1-2.91.35-1-.34-1.5,0-2.56.55-1.73,2.62-1.08,4.09-2.93,1.72-2.15.41-4.88,2-6.63,1.42-1.5,3.1-.25,4.1-1.67.84-1.2.51-3.36,0-5.19q7.68-.73,15.35-1.26V201.15c3.75,1.9,5.61,2.9,5.62,2.9s.17,1.15.51,3.28q5.1.34,10.18.81V185.46c-3.25,1.55-4.52,1-5.09.3-1-1.3,0-3.62-1-5.25s-3.36-1.4-5.1-.93v-5.3c3.18.26,4.51-.67,5.1-1.75.92-1.68,0-3.7,1-5.39.87-1.48,2.6-1.72,4.08-1.62.82-3.3.5-4.69,0-5.33-1-1.3-2.92.35-4.08-1s-.09-3.31-1-5.24a4.46,4.46,0,0,0-4.08-2.26q-1-2.55-2.05-5.08c.35-1.36.69-2.72,1-4.09,6.27-4.64,12.07-4.83,14.25-1.25a8,8,0,0,1,1,3.95q5.07.38,10.13,1c.34,3.12.67,6.24,1,9.36,0,2-.16,4.5-1.23,5.16-1.32.81-3-1.84-3.83-1s-.37,3.86,1,5.33c1.06,1.12,2,.5,3,1.27s2,2.68,2,8c2.69-.48,5.38-.92,8.05-1.32a11.21,11.21,0,0,1,2-6.66,5.66,5.66,0,0,1,8-1.05c.67-1.75,1.33-3.49,2-5.23,2.65.16,5.3.35,7.94.59q.5,6.67,1,13.37,4.46.36,8.86.86a10.62,10.62,0,0,1,2-6.35,5.3,5.3,0,0,1,3.9-2.09c.61-2.32.32-3.39,0-3.93-1.55-2.65-7,1.84-9.79-1.27-1.13-1.29-1.4-3.4-1.47-4.8v-7.95c2,0,4.33-.4,5.4-2.61,1-2,0-3.81,1-5.13,2-2.71,8,2.18,8.77.2a2.72,2.72,0,0,0,0-1.3A5.51,5.51,0,0,0,324,136.61Z" />
                </g>
            </g>
        </g>
    </g>
</svg>